<mxfile host="65bd71144e">
    <diagram id="G_GHirq6YHZsUxLfx--a" name="Page-1">
        <mxGraphModel dx="1139" dy="638" grid="1" gridSize="10" guides="1" tooltips="1" connect="1" arrows="1" fold="1" page="1" pageScale="1" pageWidth="827" pageHeight="1169" math="0" shadow="0">
            <root>
                <mxCell id="0"/>
                <mxCell id="1" parent="0"/>
                <mxCell id="2" value="&lt;div&gt;LOOPS DA MANEIRA ANTIGA E DA&amp;nbsp;&lt;span style=&quot;background-color: initial;&quot;&gt;MANEIRA NOVA&lt;/span&gt;&lt;/div&gt;" style="text;html=1;align=center;verticalAlign=middle;resizable=0;points=[];autosize=1;strokeColor=none;fillColor=none;" vertex="1" parent="1">
                    <mxGeometry x="259" y="200" width="310" height="30" as="geometry"/>
                </mxCell>
            </root>
        </mxGraphModel>
    </diagram>
</mxfile>